<svg width="800" height="600" xmlns="http://www.w3.org/2000/svg">

 <g>
  <title>Layer 1</title>
  <g>
   <g id="svg_2">
    <g>
     <path fill="#1b5e20" stroke="#1b5e20" d="m539.635,70l-279.27,0c-16.77,0 -30.365,13.595 -30.365,30.365l0,399.27c0,16.77 13.595,30.365 30.365,30.365l279.27,0c16.77,0 30.365,-13.595 30.365,-30.365l0,-399.27c0,-16.77 -13.595,-30.365 -30.365,-30.365zm-261.431,343.61l0,-43.196c0,-3.451 2.797,-6.248 6.248,-6.248l43.196,0c3.451,0 6.248,2.797 6.248,6.248l0,43.196c0,3.451 -2.797,6.248 -6.248,6.248l-43.196,0c-3.451,0 -6.248,-2.798 -6.248,-6.248zm0,-87l0,-43.196c0,-3.451 2.797,-6.248 6.248,-6.248l43.196,0c3.451,0 6.248,2.797 6.248,6.248l0,43.196c0,3.451 -2.797,6.248 -6.248,6.248l-43.196,0c-3.451,0 -6.248,-2.798 -6.248,-6.248zm200.687,164.39l-157.782,0c-11.046,0 -20,-8.954 -20,-20c0,-11.046 8.954,-20 20,-20l157.782,0c11.046,0 20,8.954 20,20c0,11.046 -8.954,20 -20,20zm-100.489,-126.835l43.196,0c3.451,0 6.248,2.797 6.248,6.248l0,43.196c0,3.451 -2.797,6.248 -6.248,6.248l-43.196,0c-3.451,0 -6.248,-2.797 -6.248,-6.248l0,-43.196c0,-3.45 2.797,-6.248 6.248,-6.248zm-6.248,-37.555l0,-43.196c0,-3.451 2.797,-6.248 6.248,-6.248l43.196,0c3.451,0 6.248,2.797 6.248,6.248l0,43.196c0,3.451 -2.797,6.248 -6.248,6.248l-43.196,0c-3.451,0 -6.248,-2.798 -6.248,-6.248zm143.394,93.248l-43.196,0c-3.451,0 -6.248,-2.797 -6.248,-6.248l0,-43.196c0,-3.451 2.797,-6.248 6.248,-6.248l43.196,0c3.451,0 6.248,2.797 6.248,6.248l0,43.196l0,0c0,3.451 -2.797,6.248 -6.248,6.248zm0,-87l-43.196,0c-3.451,0 -6.248,-2.797 -6.248,-6.248l0,-43.196c0,-3.451 2.797,-6.248 6.248,-6.248l43.196,0c3.451,0 6.248,2.797 6.248,6.248l0,43.196l0,0c0,3.451 -2.797,6.248 -6.248,6.248zm8.452,-113.221c0,11.799 -9.565,21.363 -21.363,21.363l-205.273,0c-11.799,0 -21.364,-9.565 -21.364,-21.363l0,-87.274c0,-11.798 9.565,-21.363 21.364,-21.363l205.273,0c11.798,0 21.363,9.565 21.363,21.363l0,87.274z"/>
    </g>
   </g>
   <g/>
   <g/>
   <g/>
   <g/>
   <g/>
   <g/>
   <g/>
   <g/>
   <g/>
   <g/>
   <g/>
   <g/>
   <g/>
   <g/>
   <g/>
  </g>
 </g>
</svg>