<svg width="715" height="600" xmlns="http://www.w3.org/2000/svg">

 <g>
  <title>Layer 1</title>
  <g>
   <g>
    <g>
     <g>
      <path fill="#1b5e20" d="m589,256l0,-74c0,-5.238 -4.262,-9.5 -9.5,-9.5l-6.5,0l0,-24.5c0,-12.958 -10.542,-23.5 -23.5,-23.5l-80.5,0l0,-0.5c0,-12.958 -10.542,-23.5 -23.5,-23.5l-176,0c-12.958,0 -23.5,10.542 -23.5,23.5l0,0.5l-80.5,0c-12.958,0 -23.5,10.542 -23.5,23.5l0,24.5l-6.5,0c-5.238,0 -9.5,4.262 -9.5,9.5l0,74c0,12.376 6.37,23.288 16,29.644l0,198.856l-8.5,0c-4.142,0 -7.5,3.358 -7.5,7.5c0,4.142 3.358,7.5 7.5,7.5l448,0c4.142,0 7.5,-3.358 7.5,-7.5c0,-4.142 -3.358,-7.5 -7.5,-7.5l-8.5,0l0,-198.856c9.63,-6.356 16,-17.268 16,-29.644zm-328,-132c0,-4.687 3.813,-8.5 8.5,-8.5l176,0c4.687,0 8.5,3.813 8.5,8.5l0,7.961c0,0.013 -0.002,0.025 -0.002,0.039c0,0.006 0.001,0.013 0.001,0.02c-0.011,4.677 -3.819,8.48 -8.499,8.48l-176,0c-4.687,0 -8.5,-3.813 -8.5,-8.5l0,-8zm-104,24c0,-4.687 3.813,-8.5 8.5,-8.5l81.734,0c3.138,9.29 11.93,16 22.266,16l176,0c10.336,0 19.128,-6.71 22.266,-16l81.734,0c4.687,0 8.5,3.813 8.5,8.5l0,24.5l-401,0l0,-24.5zm361,39.5l0,68.5c0,11.304 -9.196,20.5 -20.5,20.5c-11.304,0 -20.5,-9.196 -20.5,-20.5l0,-68.5l41,0zm-56,0l0,68.5c0,11.304 -9.196,20.5 -20.5,20.5c-11.304,0 -20.5,-9.196 -20.5,-20.5l0,-68.5l41,0zm-56,0l0,68.5c0,11.304 -9.196,20.5 -20.5,20.5c-11.304,0 -20.5,-9.196 -20.5,-20.5l0,-68.5l41,0zm-56,0l0,68.5c0,11.304 -9.196,20.5 -20.5,20.5s-20.5,-9.196 -20.5,-20.5l0,-68.5l41,0zm-56,0l0,68.5c0,11.304 -9.196,20.5 -20.5,20.5s-20.5,-9.196 -20.5,-20.5l0,-68.5l41,0zm-56,0l0,68.5c0,11.304 -9.196,20.5 -20.5,20.5s-20.5,-9.196 -20.5,-20.5l0,-68.5l41,0zm-97,68.5l0,-68.5l41,0l0,68.5c0,11.304 -9.196,20.5 -20.5,20.5s-20.5,-9.196 -20.5,-20.5zm129,228.5l-81,0l0,-17l81,0l0,17zm0,-32l-81,0l0,-129l81,0l0,129zm288,32l-273,0l0,-168.5c0,-4.142 -3.358,-7.5 -7.5,-7.5l-96,0c-4.142,0 -7.5,3.358 -7.5,7.5l0,168.5l-17,0l0,-193.295c1.475,0.188 2.975,0.295 4.5,0.295c11.368,0 21.498,-5.378 28,-13.716c6.502,8.338 16.632,13.716 28,13.716s21.498,-5.378 28,-13.716c6.502,8.338 16.632,13.716 28,13.716s21.498,-5.378 28,-13.716c6.502,8.338 16.632,13.716 28,13.716s21.498,-5.378 28,-13.716c6.502,8.338 16.632,13.716 28,13.716s21.498,-5.378 28,-13.716c6.502,8.338 16.632,13.716 28,13.716c11.368,0 21.498,-5.378 28,-13.716c6.502,8.338 16.632,13.716 28,13.716c11.368,0 21.498,-5.378 28,-13.716c6.502,8.338 16.632,13.716 28,13.716c1.525,0 3.025,-0.107 4.5,-0.295l0,193.295zm-4.5,-208c-11.304,0 -20.5,-9.196 -20.5,-20.5l0,-68.5l41,0l0,68.5c0,11.304 -9.196,20.5 -20.5,20.5z"/>
      <path fill="#1b5e20" d="m533.5,308.5l-224,0c-4.142,0 -7.5,3.358 -7.5,7.5l0,144c0,4.142 3.358,7.5 7.5,7.5l224,0c4.142,0 7.5,-3.358 7.5,-7.5l0,-144c0,-4.142 -3.358,-7.5 -7.5,-7.5zm-7.5,144l-49,0l0,-25l24.5,0c4.142,0 7.5,-3.358 7.5,-7.5c0,-4.142 -3.358,-7.5 -7.5,-7.5l-64,0c-4.142,0 -7.5,3.358 -7.5,7.5c0,4.142 3.358,7.5 7.5,7.5l24.5,0l0,25l-81,0l0,-25l24.5,0c4.142,0 7.5,-3.358 7.5,-7.5c0,-4.142 -3.358,-7.5 -7.5,-7.5l-64,0c-4.142,0 -7.5,3.358 -7.5,7.5c0,4.142 3.358,7.5 7.5,7.5l24.5,0l0,25l-49,0l0,-129l49,0l0,9.909c-13.759,3.375 -24,15.806 -24,30.591c0,4.142 3.358,7.5 7.5,7.5l16.5,0l0,0.5c0,4.142 3.358,7.5 7.5,7.5c4.142,0 7.5,-3.358 7.5,-7.5l0,-0.5l16.5,0c4.142,0 7.5,-3.358 7.5,-7.5c0,-14.785 -10.241,-27.216 -24,-30.591l0,-9.909l81,0l0,9.909c-13.759,3.375 -24,15.806 -24,30.591c0,4.142 3.358,7.5 7.5,7.5l16.5,0l0,0.5c0,4.142 3.358,7.5 7.5,7.5c4.142,0 7.5,-3.358 7.5,-7.5l0,-0.5l16.5,0c4.142,0 7.5,-3.358 7.5,-7.5c0,-14.785 -10.241,-27.216 -24,-30.591l0,-9.909l49,0l0,129zm-152.5,-105c6.4,0 11.959,3.662 14.695,9l-29.39,0c2.735,-5.338 8.295,-9 14.695,-9zm96,0c6.4,0 11.959,3.662 14.695,9l-29.39,0c2.735,-5.338 8.295,-9 14.695,-9z"/>
      <path fill="#1b5e20" d="m253.5,411.5c4.142,0 7.5,-3.358 7.5,-7.5l0,-16c0,-4.142 -3.358,-7.5 -7.5,-7.5c-4.142,0 -7.5,3.358 -7.5,7.5l0,16c0,4.142 3.358,7.5 7.5,7.5z"/>
     </g>
    </g>
   </g>
   <g/>
   <g/>
   <g/>
   <g/>
   <g/>
   <g/>
   <g/>
   <g/>
   <g/>
   <g/>
   <g/>
   <g/>
   <g/>
   <g/>
   <g/>
  </g>
 </g>
</svg>