<svg width="715" height="600" xmlns="http://www.w3.org/2000/svg">

 <g>
  <title>Layer 1</title>
  <g>
   <g id="svg_6">
    <path fill="#1b5e20" d="m514.43041,321.991l-68.978,-151.114c-3.491,-7.66 -11.088,-12.096 -19.004,-12.03c-0.019,0.046 -0.019,0.089 -0.031,0.135c-3.042,32.534 -20.478,114.299 -41.602,114.299c-21.106,0 -38.542,-81.759 -41.597,-114.299c0,-0.039 0,-0.089 0,-0.129c-7.916,-0.071 -15.513,4.364 -19.022,12.024l-30.816,67.512c-1.328,-0.912 -2.864,-1.573 -4.591,-1.573l-61.381,0c-4.573,0 -8.273,3.7 -8.273,8.273l0,2.077c-11.315,0.138 -20.441,9.299 -20.441,20.639c0,11.337 9.127,20.5 20.441,20.636l0,59.343c0,4.576 3.7,8.276 8.273,8.276l61.381,0c4.561,0 8.272,-3.7 8.272,-8.276l0,-59.294l5.624,0c8.113,0 15.47,-4.727 18.831,-12.096l4.671,-10.246l-0.068,257.018c0,13.713 11.119,24.821 24.824,24.821c13.724,0 24.824,-11.108 24.824,-24.821l0,-147.93l18.1,0l0,147.93c0,13.713 11.118,24.821 24.824,24.821c13.718,0 24.824,-11.108 24.824,-24.821l-0.049,-257.018l33.342,73.023c3.455,7.611 10.971,12.103 18.826,12.103c2.858,0 5.783,-0.605 8.58,-1.875c10.375,-4.74 14.967,-17.018 10.216,-27.408zm-233.915,17.52l-44.83,0l0,-86.146l44.83,0l0,86.146z" id="svg_11"/>
    <path fill="#1b5e20" d="m409.14041,197.601c13.946,-13.955 13.946,-36.581 0,-50.536c-1.954,-1.948 -5.089,-1.948 -7.049,0l-17.277,17.268l-17.259,-17.268c-1.936,-1.948 -5.107,-1.948 -7.043,0c-13.964,13.955 -13.964,36.581 0,50.536c1.937,1.945 5.107,1.945 7.043,0l17.259,-17.271l17.277,17.271c1.961,1.945 5.095,1.945 7.049,0z" id="svg_10"/>
    <path fill="#1b5e20" d="m384.81541,148.745c15.033,0 28.266,-6.973 37.141,-17.703c6.914,-8.365 11.247,-18.952 11.247,-30.66c0,-26.721 -21.653,-48.369 -48.388,-48.369c-26.693,0 -48.352,21.648 -48.352,48.369c0,11.702 4.314,22.295 11.248,30.66c8.856,10.721 22.107,17.703 37.104,17.703z" id="svg_9"/>
    <path fill="#1b5e20" d="m384.81541,199.064c-4.554,0 -8.273,3.7 -8.273,8.272c0,4.572 3.719,8.275 8.273,8.275c4.591,0 8.278,-3.703 8.278,-8.275c0,-4.572 -3.687,-8.272 -8.278,-8.272z" id="svg_8"/>
    <path fill="#1b5e20" d="m384.81541,232.16c-4.554,0 -8.273,3.699 -8.273,8.275c0,4.573 3.719,8.272 8.273,8.272c4.591,0 8.278,-3.699 8.278,-8.272c0,-4.575 -3.687,-8.275 -8.278,-8.275z" id="svg_7"/>
   </g>
   <g/>
   <g/>
   <g/>
   <g/>
   <g/>
   <g/>
   <g/>
   <g/>
   <g/>
   <g/>
   <g/>
   <g/>
   <g/>
   <g/>
   <g/>
  </g>
 </g>
</svg>