<svg width="715" height="600" xmlns="http://www.w3.org/2000/svg">

 <g>
  <title>Layer 1</title>
  <g>
   <g>
    <g>
     <circle fill="#1b5e20" r="42.141" cy="86.141" cx="428.97538"/>
    </g>
   </g>
   <g>
    <g>
     <path fill="#1b5e20" d="m475.14638,345.495l-37.297,0c-1.34,0 -2.636,-0.185 -3.88,-0.499l0,186.604c0,13.475 10.924,24.4 24.4,24.4c13.475,0 24.4,-10.924 24.4,-24.4l0,-188.062c-2.264,1.245 -4.861,1.957 -7.623,1.957z"/>
    </g>
   </g>
   <g>
    <g>
     <path fill="#1b5e20" d="m531.50238,189.591c-0.132,-26.4 -21.717,-47.877 -48.117,-47.877c-12.094,0 -90.329,0 -101.605,0c-14.602,0 -28.237,6.516 -37.411,17.877l-36.494,45.198l-33.592,0c1.64,-1.302 2.694,-3.309 2.694,-5.567l0,-5.037c22.407,-3.812 37.931,-12.061 37.931,-21.628c0,-0.574 -0.071,-1.141 -0.199,-1.703c-0.249,-1.1 -2.105,-1.927 -4.32,-1.927l-122.711,0c-2.207,0 -4.067,0.826 -4.319,1.922c-0.13,0.563 -0.204,1.133 -0.204,1.708c0,9.565 15.525,17.815 37.931,21.628l0,5.037c0,3.927 3.184,7.111 7.111,7.111l5.411,0c-7.373,3.052 -12.563,10.311 -12.563,18.788c0,11.23 9.103,20.333 20.333,20.333l76.214,0c6.145,0 11.96,-2.779 15.82,-7.56l41.214,-51.044l0.009,344.749c0,13.475 10.924,24.4 24.4,24.4c13.475,0 24.4,-10.924 24.4,-24.4l0.023,-229.7c-14.235,-2.924 -27.145,-14.637 -28.998,-29.859c-2.205,-18.114 11.427,-34.659 28.998,-38.252l0,-4.379c0,-8.054 6.032,-14.832 14.033,-15.765l35.817,-4.351c3.135,-0.365 6.252,0.214 9.019,1.618l0,-21.181c0,-2.35 1.904,-4.254 4.254,-4.255c2.35,0 4.255,1.904 4.255,4.253c0,0.022 0,0.044 0,0.066l0,89.817l23.132,-1.635c10.243,-1.246 17.927,-9.968 17.876,-20.286c-0.045,-9.154 -0.296,-59.069 -0.342,-68.099z"/>
    </g>
   </g>
   <g>
    <g>
     <path fill="#1b5e20" d="m408.79238,270.296c0.954,7.837 7.733,14.077 14.666,16.626l0,-38.157c-8.668,3.175 -15.829,11.973 -14.666,21.531z"/>
    </g>
   </g>
   <g>
    <g>
     <path fill="#1b5e20" d="m254.88238,94.527c0.696,-1.082 1.104,-2.368 1.104,-3.751c0,-3.841 -3.114,-6.954 -6.954,-6.954c-3.841,0 -6.954,3.114 -6.954,6.954c0,1.383 0.409,2.667 1.104,3.751c-31.168,2.828 -55.881,28.015 -57.949,59.398c-0.073,1.105 0.316,2.19 1.072,2.998c0.756,0.809 1.814,1.271 2.921,1.271l119.613,0c1.108,0 2.166,-0.459 2.923,-1.268c0.756,-0.809 1.144,-1.895 1.07,-3.001c-2.07,-31.381 -26.782,-56.57 -57.95,-59.398z"/>
    </g>
   </g>
   <g/>
   <g/>
   <g/>
   <g/>
   <g/>
   <g/>
   <g/>
   <g/>
   <g/>
   <g/>
   <g/>
   <g/>
   <g/>
   <g/>
   <g/>
  </g>
 </g>
</svg>